<?xml version="1.0" standalone="no"?>
<!DOCTYPE svg PUBLIC "-//W3C//DTD SVG 20010904//EN"
 "http://www.w3.org/TR/2001/REC-SVG-20010904/DTD/svg10.dtd">
<svg version="1.0" xmlns="http://www.w3.org/2000/svg"
 width="512.000000pt" height="512.000000pt" viewBox="0 0 512.000000 512.000000"
 preserveAspectRatio="xMidYMid meet">

<g transform="translate(0.000000,512.000000) scale(0.100000,-0.100000)"
fill="#ffffff" stroke="black">
<path d="M2085 4903 c-46 -24 -76 -54 -96 -98 -17 -38 -19 -81 -19 -747 l0
-707 -422 -3 c-379 -3 -426 -5 -455 -20 -79 -44 -128 -155 -103 -234 10 -32
147 -174 733 -761 397 -398 736 -730 753 -738 41 -19 127 -19 168 0 17 8 356
340 753 738 586 587 723 729 733 761 25 79 -24 190 -103 234 -29 15 -76 17
-454 20 l-423 3 0 705 c0 613 -2 709 -15 742 -20 47 -50 79 -97 103 -35 18
-64 19 -480 19 -384 -1 -447 -3 -473 -17z"/>
<path d="M183 1749 c-36 -14 -67 -37 -102 -75 -84 -91 -82 -77 -79 -710 3
-535 4 -550 24 -594 25 -53 84 -114 139 -143 l40 -22 2355 0 2355 0 40 22 c55
29 114 90 139 143 20 44 21 59 24 594 3 633 5 619 -79 710 -36 40 -65 61 -105
75 -53 20 -73 21 -797 21 l-742 0 -220 -221 c-316 -316 -396 -364 -615 -364
-219 0 -299 48 -615 364 l-220 221 -745 -1 c-720 0 -747 -1 -797 -20z m3671
-803 c125 -95 105 -272 -38 -337 -74 -34 -159 -15 -218 47 -82 88 -60 235 45
299 36 22 51 25 108 23 54 -3 73 -9 103 -32z m764 15 c43 -22 63 -42 87 -91
22 -43 23 -125 2 -165 -33 -65 -112 -115 -179 -115 -111 1 -211 121 -193 231
9 50 55 113 102 138 50 26 132 27 181 2z"/>
</g>
</svg>
