<?xml version="1.0" standalone="no"?>
<!DOCTYPE svg PUBLIC "-//W3C//DTD SVG 20010904//EN"
 "http://www.w3.org/TR/2001/REC-SVG-20010904/DTD/svg10.dtd">
<svg version="1.0" xmlns="http://www.w3.org/2000/svg"
 width="1024.000000pt" height="1024.000000pt" viewBox="0 0 1024.000000 1024.000000"
 preserveAspectRatio="xMidYMid meet">

<g transform="translate(0.000000,1024.000000) scale(0.100000,-0.100000)"
fill="#000000" stroke="none">
<path d="M4765 10180 c-535 -41 -1041 -158 -1530 -353 -1061 -423 -1962 -1210
-2527 -2207 -345 -609 -556 -1271 -635 -1990 -25 -233 -25 -787 0 -1020 67
-610 222 -1157 481 -1695 390 -808 996 -1507 1741 -2006 280 -187 640 -378
940 -497 995 -396 2071 -469 3110 -212 1129 279 2127 940 2829 1875 330 438
596 949 765 1466 485 1488 261 3108 -609 4406 -369 551 -867 1045 -1420 1408
-680 447 -1447 721 -2270 811 -169 18 -709 27 -875 14z m135 -1860 l0 -1230
-22 0 c-50 0 -311 21 -438 35 -358 41 -805 132 -1082 222 l-88 28 59 130 c296
660 713 1260 1233 1771 191 189 289 274 315 274 l23 0 0 -1230z m600 1127
c582 -525 1083 -1213 1406 -1932 44 -98 59 -142 51 -146 -26 -14 -350 -101
-497 -133 -329 -74 -635 -116 -1017 -141 l-103 -7 0 1231 0 1231 23 0 c15 0
63 -36 137 -103z m-1507 -129 c-460 -517 -812 -1061 -1078 -1663 -31 -71 -58
-131 -59 -133 -6 -6 -258 108 -451 203 -191 94 -396 208 -548 304 l-57 37 102
109 c487 516 1131 926 1814 1155 108 35 357 108 377 109 5 1 -40 -54 -100
-121z m2352 67 c741 -211 1434 -629 1968 -1186 l128 -133 -78 -49 c-142 -91
-376 -220 -568 -313 -175 -85 -406 -187 -411 -181 -1 1 -28 61 -59 132 -271
615 -632 1166 -1124 1715 -74 83 -89 81 144 15z m-4685 -1750 c250 -157 612
-345 885 -460 77 -32 143 -61 147 -64 4 -4 -13 -71 -37 -151 -148 -480 -245
-1012 -271 -1492 l-7 -128 -845 0 -845 0 7 103 c52 755 317 1520 748 2160 50
72 84 115 91 111 7 -4 64 -39 127 -79z m7138 -32 c227 -337 424 -741 547
-1123 101 -315 179 -714 201 -1037 l7 -103 -845 0 -845 0 -7 128 c-25 473
-124 1015 -271 1492 -24 80 -41 147 -37 151 4 3 70 32 147 64 281 119 651 312
915 479 58 36 106 66 107 66 1 0 37 -53 81 -117z m-5493 -698 c465 -134 928
-213 1420 -245 88 -5 163 -10 167 -10 5 0 8 -295 8 -655 l0 -655 -1041 0
-1042 0 7 128 c24 423 110 898 243 1340 37 123 49 151 62 147 9 -2 88 -25 176
-50z m3825 50 c0 -3 20 -71 44 -153 132 -437 219 -915 242 -1334 l7 -128
-1042 0 -1041 0 0 654 0 654 83 6 c383 27 567 47 827 92 251 43 608 130 840
204 31 10 40 11 40 5z m-4746 -2207 c20 -459 128 -1071 265 -1499 17 -53 31
-103 31 -111 0 -9 -54 -37 -148 -78 -279 -120 -670 -324 -886 -464 -135 -87
-114 -90 -194 27 -231 341 -433 752 -557 1137 -102 317 -178 712 -201 1038
l-7 102 845 0 845 0 7 -152z m2516 -503 c0 -522 -3 -655 -13 -655 -7 0 -84 -5
-172 -10 -486 -32 -943 -111 -1414 -246 -106 -30 -197 -52 -202 -47 -4 4 -25
71 -48 148 -132 462 -206 891 -229 1328 l-7 137 1042 0 1043 0 0 -655z m2517
513 c-14 -319 -74 -724 -158 -1063 -40 -161 -109 -398 -119 -409 -5 -5 -63 8
-132 29 -493 149 -982 233 -1570 271 l-98 6 0 654 0 654 1042 0 1041 0 -6
-142z m2133 107 c0 -66 -31 -340 -55 -482 -105 -620 -331 -1192 -682 -1721
-60 -91 -99 -140 -106 -135 -7 4 -64 39 -127 78 -164 102 -341 200 -525 292
-138 70 -228 111 -457 211 l-46 20 34 109 c55 169 130 471 169 679 56 296 105
719 105 911 l0 73 845 0 845 0 0 -35z m-4650 -2945 l0 -1230 -50 0 c-50 0 -52
1 -158 99 -494 454 -947 1055 -1250 1658 -62 122 -182 390 -182 405 0 23 424
138 710 192 276 52 643 95 883 104 l47 2 0 -1230z m809 1204 c270 -26 558 -73
821 -135 204 -48 450 -122 450 -135 0 -38 -219 -490 -335 -689 -299 -515 -696
-1012 -1107 -1387 -96 -86 -99 -88 -148 -88 l-50 0 0 1231 0 1231 108 -7 c59
-3 176 -13 261 -21z m-2817 -534 c67 -159 222 -470 309 -620 225 -393 557
-851 798 -1102 25 -27 39 -48 32 -48 -24 0 -281 77 -401 120 -449 161 -891
406 -1259 698 -181 144 -396 342 -512 473 l-59 66 188 112 c251 151 811 427
846 417 5 -1 31 -53 58 -116z m4693 45 c269 -120 568 -278 781 -414 l74 -47
-102 -109 c-462 -489 -1068 -886 -1712 -1120 -130 -47 -388 -125 -413 -125 -8
0 24 42 69 94 448 502 853 1149 1102 1759 19 46 6 48 201 -38z"/>
</g>
</svg>
